<svg width="31" height="31" viewBox="0 0 31 31" fill="none" xmlns="http://www.w3.org/2000/svg">
<rect width="31" height="31" rx="5" fill="#D9D9D9"/>
<path d="M24.7071 16.7071C25.0976 16.3166 25.0976 15.6834 24.7071 15.2929L18.3431 8.92893C17.9526 8.53841 17.3195 8.53841 16.9289 8.92893C16.5384 9.31946 16.5384 9.95262 16.9289 10.3431L22.5858 16L16.9289 21.6569C16.5384 22.0474 16.5384 22.6805 16.9289 23.0711C17.3195 23.4616 17.9526 23.4616 18.3431 23.0711L24.7071 16.7071ZM7 15C6.44772 15 6 15.4477 6 16C6 16.5523 6.44772 17 7 17V15ZM24 15L7 15V17L24 17V15Z" fill="#919488"/>
</svg>
